<svg xmlns="http://www.w3.org/2000/svg" xmlns:xlink="http://www.w3.org/1999/xlink" width="328" height="182" fill="none" xmlns:v="https://vecta.io/nano"><g clip-path="url(#A)"><g stroke="#c5cde9" stroke-miterlimit="10"><path d="M109.567-20.027l65.797 41.591c-24.079 38.093-73.055 50.358-109.393 27.387l43.596-68.978z"/><path d="M109.566-20.028l65.798 41.591C199.443-16.53 189.506-66.035 153.162-89l-43.596 68.972zM279.912-9.222l-65.798-41.591c-24.079 38.098-14.137 87.598 22.202 110.569l43.596-68.978zM246.52 66.535l65.797 41.59c-24.079 38.093-73.055 50.358-109.393 27.388l43.596-68.978z"/><path d="M246.52 66.535l65.797 41.59c24.079-38.092 14.137-87.598-22.202-110.563L246.52 66.535zm-54.402 63.135l-65.797-41.585c-24.079 38.093-14.142 87.592 22.196 110.563l43.601-68.978z"/><path d="M192.119 129.67l-65.798-41.585c24.079-38.098 73.055-50.358 109.394-27.387l-43.596 68.973zm10.37 6.55l65.787 41.58c-24.079 38.092-73.061 50.352-109.399 27.387l43.612-68.967z"/><path d="M202.479 136.22l65.797 41.591 44.042-69.686m-230.34 61.32l-65.797-41.591c-24.079 38.098-14.137 87.598 22.202 110.569l43.596-68.978z"/><path d="M16.064 127.776l65.798 41.591c24.079-38.099 14.137-87.598-22.202-110.569l-43.596 68.978zm65.915 41.669l65.797 41.59c-24.079 38.093-73.055 50.358-109.393 27.388l43.596-68.978z"/><path d="M203.949 6.402h-48.481c-3.762 0-6.812 3.05-6.812 6.812v48.481c0 3.762 3.05 6.812 6.812 6.812h48.481c3.762 0 6.812-3.05 6.812-6.812V13.214c0-3.762-3.05-6.812-6.812-6.812z" fill="#fafbff"/></g><path d="M157.205 36.827v-1.116l1.488-1.26c.488-.416.92-.828 1.296-1.236.384-.408.688-.804.912-1.188.232-.392.348-.772.348-1.14a1.51 1.51 0 0 0-.288-.912c-.184-.264-.492-.396-.924-.396-.44 0-.772.144-.996.432s-.336.636-.336 1.044h-1.488c.016-.616.152-1.128.408-1.536.256-.416.596-.724 1.02-.924.424-.208.9-.312 1.428-.312.856 0 1.52.236 1.992.708.48.464.72 1.068.72 1.812 0 .464-.108.916-.324 1.356-.208.44-.484.864-.828 1.272a11.66 11.66 0 0 1-1.116 1.152l-1.164.984h3.636v1.26h-5.784zm10.445.144c-.776 0-1.44-.18-1.992-.54-.552-.368-.98-.876-1.284-1.524-.296-.656-.444-1.416-.444-2.28 0-.856.148-1.612.444-2.268.304-.656.732-1.164 1.284-1.524.552-.368 1.216-.552 1.992-.552s1.44.184 1.992.552c.552.36.976.868 1.272 1.524.304.656.456 1.412.456 2.268 0 .864-.152 1.624-.456 2.28-.296.648-.72 1.156-1.272 1.524-.552.36-1.216.54-1.992.54zm0-1.38c.632 0 1.148-.264 1.548-.792s.6-1.252.6-2.172-.2-1.644-.6-2.172-.916-.792-1.548-.792c-.64 0-1.16.264-1.56.792-.392.528-.588 1.252-.588 2.172s.196 1.644.588 2.172c.4.528.92.792 1.56.792zm8.52 1.38c-.776 0-1.44-.18-1.992-.54-.552-.368-.98-.876-1.284-1.524-.296-.656-.444-1.416-.444-2.28 0-.856.148-1.612.444-2.268.304-.656.732-1.164 1.284-1.524.552-.368 1.216-.552 1.992-.552s1.44.184 1.992.552c.552.36.976.868 1.272 1.524.304.656.456 1.412.456 2.268 0 .864-.152 1.624-.456 2.28-.296.648-.72 1.156-1.272 1.524-.552.36-1.216.54-1.992.54zm0-1.38c.632 0 1.148-.264 1.548-.792s.6-1.252.6-2.172-.2-1.644-.6-2.172-.916-.792-1.548-.792c-.64 0-1.16.264-1.56.792-.392.528-.588 1.252-.588 2.172s.196 1.644.588 2.172c.4.528.92.792 1.56.792zm11.607 1.38c-.792 0-1.484-.18-2.076-.54a3.68 3.68 0 0 1-1.38-1.5c-.328-.648-.492-1.4-.492-2.256 0-.864.168-1.624.504-2.28.344-.664.828-1.18 1.452-1.548.632-.376 1.38-.564 2.244-.564.984 0 1.8.236 2.448.708s1.068 1.124 1.26 1.956h-1.716c-.128-.392-.36-.696-.696-.912-.336-.224-.768-.336-1.296-.336-.84 0-1.488.268-1.944.804-.456.528-.684 1.256-.684 2.184s.224 1.648.672 2.16c.456.504 1.072.756 1.848.756.76 0 1.332-.204 1.716-.612.392-.416.628-.96.708-1.632h-2.124v-1.152h3.672v4.62h-1.416l-.12-1.104c-.272.4-.612.708-1.02.924s-.928.324-1.56.324zm5.609-.144v-8.4h3.372c.872 0 1.536.204 1.992.612.464.4.696.916.696 1.548 0 .528-.144.952-.432 1.272-.28.312-.624.524-1.032.636a1.99 1.99 0 0 1 1.188.72c.312.376.468.816.468 1.32 0 .664-.24 1.212-.72 1.644s-1.16.648-2.04.648h-3.492zm1.536-4.872h1.608c.432 0 .764-.1.996-.3s.348-.484.348-.852c0-.352-.116-.628-.348-.828-.224-.208-.564-.312-1.02-.312h-1.584v2.292zm0 3.624h1.716c.456 0 .808-.104 1.056-.312.256-.216.384-.516.384-.9 0-.392-.132-.7-.396-.924s-.62-.336-1.068-.336h-1.692v2.472z" fill="#673de6"/><path d="M159.422 48.184c-.359 0-.677-.061-.952-.182a1.57 1.57 0 0 1-.651-.532c-.159-.233-.24-.516-.245-.847h.945c.009.229.091.422.245.581s.376.231.651.231c.238 0 .427-.056.567-.168a.57.57 0 0 0 .21-.462c0-.201-.063-.357-.189-.469a1.36 1.36 0 0 0-.49-.273l-.658-.224c-.378-.131-.667-.299-.868-.504s-.294-.478-.294-.819c-.005-.289.063-.537.203-.742a1.4 1.4 0 0 1 .588-.483c.247-.117.532-.175.854-.175s.614.058.861.175.448.28.588.49.222.46.231.749h-.959a.65.65 0 0 0-.203-.455c-.126-.135-.303-.203-.532-.203-.196-.005-.362.044-.497.147s-.196.243-.196.434c0 .163.051.294.154.392s.243.173.42.238l.609.21a4.14 4.14 0 0 1 .665.294c.201.112.362.261.483.448s.182.418.182.707c0 .257-.065.495-.196.714s-.324.397-.581.532-.572.196-.945.196zm4.177 0c-.36 0-.677-.061-.952-.182s-.493-.303-.651-.532-.241-.516-.245-.847h.945c.009.229.091.422.245.581s.375.231.651.231c.238 0 .427-.056.567-.168a.57.57 0 0 0 .21-.462c0-.201-.063-.357-.189-.469s-.285-.203-.49-.273l-.658-.224c-.378-.131-.668-.299-.868-.504s-.294-.478-.294-.819c-.005-.289.063-.537.203-.742s.34-.371.588-.483.532-.175.854-.175.613.058.861.175.448.28.588.49.221.46.231.749h-.959c-.005-.173-.073-.324-.203-.455s-.304-.203-.532-.203c-.196-.005-.362.044-.497.147s-.196.243-.196.434c0 .163.051.294.154.392s.242.173.42.238l.609.21a4.18 4.18 0 0 1 .665.294 1.36 1.36 0 0 1 .483.448c.121.182.182.418.182.707 0 .257-.066.495-.196.714a1.44 1.44 0 0 1-.581.532c-.257.131-.572.196-.945.196zm2.503-.084v-4.9h1.673c.574 0 1.046.103 1.414.308a1.87 1.87 0 0 1 .826.854c.182.364.273.793.273 1.288s-.091.926-.273 1.295c-.177.364-.452.649-.826.854-.368.201-.84.301-1.414.301h-1.673zm.896-.77h.735c.411 0 .735-.065.973-.196a1.15 1.15 0 0 0 .511-.574c.103-.252.154-.555.154-.91s-.051-.651-.154-.903-.273-.446-.511-.581-.562-.203-.973-.203h-.735v3.367zm7.422.854c-.359 0-.677-.061-.952-.182a1.57 1.57 0 0 1-.651-.532c-.159-.233-.24-.516-.245-.847h.945c.009.229.091.422.245.581s.376.231.651.231c.238 0 .427-.056.567-.168a.57.57 0 0 0 .21-.462c0-.201-.063-.357-.189-.469a1.36 1.36 0 0 0-.49-.273l-.658-.224c-.378-.131-.667-.299-.868-.504s-.294-.478-.294-.819c-.005-.289.063-.537.203-.742a1.4 1.4 0 0 1 .588-.483c.247-.117.532-.175.854-.175s.614.058.861.175.448.28.588.49c.145.21.222.46.231.749h-.959a.65.65 0 0 0-.203-.455c-.126-.135-.303-.203-.532-.203-.196-.005-.362.044-.497.147s-.196.243-.196.434c0 .163.051.294.154.392s.243.173.42.238l.609.21a4.14 4.14 0 0 1 .665.294c.201.112.362.261.483.448s.182.418.182.707c0 .257-.065.495-.196.714s-.324.397-.581.532-.572.196-.945.196zm4.03-.084c-.364 0-.656-.089-.875-.266s-.329-.492-.329-.945v-1.512h-.595v-.749h.595l.105-.931h.791v.931h.938v.749h-.938v1.519c0 .168.035.285.105.35s.2.091.378.091h.434v.763h-.609zm2.976.084c-.336 0-.639-.077-.91-.231a1.74 1.74 0 0 1-.637-.637c-.154-.275-.231-.593-.231-.952a1.84 1.84 0 0 1 .238-.945c.159-.275.371-.49.637-.644.271-.154.574-.231.91-.231s.63.077.896.231.483.369.637.644a1.83 1.83 0 0 1 .238.945c0 .359-.079.677-.238.952a1.67 1.67 0 0 1-.637.637 1.79 1.79 0 0 1-.903.231zm0-.777a.83.83 0 0 0 .609-.259c.173-.177.259-.439.259-.784s-.086-.604-.259-.777-.373-.266-.602-.266a.83.83 0 0 0-.616.266c-.168.173-.252.432-.252.777s.084.607.252.784.376.259.609.259zm2.579.693v-3.472h.798l.084.651a1.44 1.44 0 0 1 .511-.532c.22-.135.476-.203.77-.203v.945h-.252c-.196 0-.371.03-.525.091s-.275.166-.364.315c-.084.149-.126.357-.126.623V48.1h-.896zm3.973.084c-.299 0-.544-.047-.735-.14a1.01 1.01 0 0 1-.567-.91c0-.322.126-.583.378-.784s.63-.301 1.134-.301h.882v-.084c0-.238-.068-.413-.203-.525s-.304-.168-.504-.168c-.182 0-.341.044-.476.133a.54.54 0 0 0-.252.378h-.875a1.23 1.23 0 0 1 .252-.658 1.42 1.42 0 0 1 .574-.427c.233-.103.494-.154.784-.154.494 0 .884.124 1.169.371s.427.597.427 1.05V48.1h-.763l-.084-.56c-.103.187-.248.341-.434.462s-.418.182-.707.182zm.203-.7c.256 0 .455-.084.595-.252a1.22 1.22 0 0 0 .273-.623h-.763c-.238 0-.409.044-.511.133a.39.39 0 0 0-.154.315c0 .135.051.24.154.315s.238.112.406.112zm4.11-.42a1.87 1.87 0 0 1-.469-.056l-.259.259c.079.042.186.077.322.105s.354.056.658.084c.462.042.798.152 1.008.329s.315.422.315.735a1.09 1.09 0 0 1-.168.581c-.112.187-.285.336-.518.448s-.532.175-.896.175c-.495 0-.894-.093-1.197-.28s-.455-.457-.455-.826c0-.313.151-.583.455-.812a1.67 1.67 0 0 1-.245-.133c-.066-.047-.124-.096-.175-.147v-.161l.609-.644c-.271-.238-.406-.544-.406-.917 0-.233.056-.446.168-.637s.28-.343.49-.455.464-.168.763-.168c.196 0 .378.028.546.084h1.316v.546l-.595.042c.093.177.14.373.14.588 0 .233-.056.446-.168.637s-.276.343-.49.455-.46.168-.749.168zm0-.686c.182 0 .331-.049.448-.147s.182-.238.182-.42-.061-.322-.182-.42-.266-.147-.448-.147c-.192 0-.346.049-.462.147s-.175.238-.175.42.058.322.175.42.27.147.462.147zm-.84 2.149c0 .173.079.301.238.385a1.23 1.23 0 0 0 .595.133c.224 0 .406-.047.546-.14a.41.41 0 0 0 .21-.364c0-.126-.047-.231-.14-.315s-.269-.135-.539-.154l-.532-.063c-.136.075-.234.156-.294.245s-.084.18-.084.273zm4.905-.343c-.35 0-.66-.075-.931-.224s-.483-.359-.637-.63-.231-.583-.231-.938a2.01 2.01 0 0 1 .224-.959 1.66 1.66 0 0 1 .63-.651c.271-.159.588-.238.952-.238.341 0 .642.075.903.224s.465.355.609.616c.15.257.224.544.224.861l-.007.161-.007.175h-2.639c.019.271.112.483.28.637s.381.231.623.231c.182 0 .334-.04.455-.119a.77.77 0 0 0 .28-.322h.91a1.65 1.65 0 0 1-.329.602 1.58 1.58 0 0 1-.56.42c-.219.103-.469.154-.749.154zm.007-2.912c-.219 0-.413.063-.581.189s-.275.308-.322.56h1.729c-.014-.229-.098-.411-.252-.546s-.345-.203-.574-.203z" fill="#2f1c6a"/><path d="M277.667 58.742h-48.481c-3.762 0-6.812 3.05-6.812 6.812v48.48c0 3.762 3.05 6.812 6.812 6.812h48.481c3.762 0 6.812-3.05 6.812-6.812v-48.48c0-3.762-3.05-6.812-6.812-6.812z" fill="#fafbff" stroke="#c5cde9" stroke-miterlimit="10"/><path d="M233.433 89.51c-.513 0-.976-.1-1.39-.3-.413-.207-.743-.517-.99-.93-.24-.413-.36-.937-.36-1.57v-4.32h1.28v4.33c0 .547.13.953.39 1.22.267.267.634.4 1.1.4.46 0 .824-.133 1.09-.4s.4-.673.4-1.22v-4.33h1.28v4.32c0 .633-.126 1.157-.38 1.57a2.4 2.4 0 0 1-1.02.93c-.42.2-.886.3-1.4.3zm4.077-.12v-4.96h1.13l.1.84a1.75 1.75 0 0 1 .66-.7c.293-.173.637-.26 1.03-.26.613 0 1.09.193 1.43.58s.51.953.51 1.7v2.8h-1.28v-2.68c0-.427-.087-.753-.26-.98s-.443-.34-.81-.34c-.36 0-.657.127-.89.38-.227.253-.34.607-.34 1.06v2.56h-1.28zm6.084 0v-7.2h1.28v7.2h-1.28zm3.278-5.73c-.234 0-.427-.07-.58-.21a.7.7 0 0 1-.22-.53.67.67 0 0 1 .22-.52c.153-.14.346-.21.58-.21s.423.07.57.21c.153.133.23.307.23.52s-.077.39-.23.53c-.147.14-.337.21-.57.21zm-.64 5.73v-4.96h1.28v4.96h-1.28zm2.616 0v-4.96h1.13l.11.67a1.73 1.73 0 0 1 .63-.57c.266-.147.573-.22.92-.22.766 0 1.31.297 1.63.89.18-.273.42-.49.72-.65.306-.16.64-.24 1-.24.646 0 1.143.193 1.49.58s.52.953.52 1.7v2.8h-1.28v-2.68c0-.427-.084-.753-.25-.98-.16-.227-.41-.34-.75-.34-.347 0-.627.127-.84.38-.207.253-.31.607-.31 1.06v2.56h-1.28v-2.68c0-.427-.084-.753-.25-.98s-.424-.34-.77-.34c-.34 0-.617.127-.83.38-.207.253-.31.607-.31 1.06v2.56h-1.28zm10.055-5.73c-.233 0-.427-.07-.58-.21a.7.7 0 0 1-.22-.53.67.67 0 0 1 .22-.52c.153-.14.347-.21.58-.21s.423.07.57.21c.153.133.23.307.23.52s-.077.39-.23.53c-.147.14-.337.21-.57.21zm-.64 5.73v-4.96h1.28v4.96h-1.28zm4.826 0c-.52 0-.937-.127-1.25-.38s-.47-.703-.47-1.35V85.5h-.85v-1.07h.85l.15-1.33h1.13v1.33h1.34v1.07h-1.34v2.17c0 .24.05.407.15.5.107.087.287.13.54.13h.62v1.09h-.87zm4.282.12c-.5 0-.943-.107-1.33-.32s-.69-.513-.91-.9-.33-.833-.33-1.34a2.87 2.87 0 0 1 .32-1.37 2.37 2.37 0 0 1 .9-.93c.387-.227.84-.34 1.36-.34.487 0 .917.107 1.29.32a2.26 2.26 0 0 1 .87.88c.213.367.32.777.32 1.23l-.01.23-.01.25h-3.77c.027.387.16.69.4.91a1.29 1.29 0 0 0 .89.33c.26 0 .477-.057.65-.17a1.11 1.11 0 0 0 .4-.46h1.3a2.36 2.36 0 0 1-.47.86c-.213.253-.48.453-.8.6-.313.147-.67.22-1.07.22zm.01-4.16c-.313 0-.59.09-.83.27-.24.173-.393.44-.46.8h2.47c-.02-.327-.14-.587-.36-.78s-.493-.29-.82-.29zm5.837 4.16c-.467 0-.884-.113-1.25-.34a2.43 2.43 0 0 1-.87-.93c-.214-.393-.32-.84-.32-1.34a2.7 2.7 0 0 1 .32-1.33c.213-.393.503-.7.87-.92.366-.227.783-.34 1.25-.34.373 0 .7.07.98.21a1.77 1.77 0 0 1 .68.59v-2.92h1.28v7.2h-1.14l-.14-.71c-.16.22-.374.413-.64.58-.26.167-.6.25-1.02.25zm.27-1.12c.413 0 .75-.137 1.01-.41.266-.28.4-.637.4-1.07s-.134-.787-.4-1.06c-.26-.28-.597-.42-1.01-.42a1.35 1.35 0 0 0-1.01.41c-.267.273-.4.627-.4 1.06s.133.79.4 1.07.603.42 1.01.42z" fill="#673de6"/><path d="M239.169 100.441l-1.295-4.9h.959l.882 3.899 1.036-3.899h.987l1.008 3.899.882-3.899h.966l-1.33 4.9H242.2l-.973-3.633-1.001 3.633h-1.057zm7.371.084c-.35 0-.661-.075-.931-.224s-.483-.359-.637-.63-.231-.583-.231-.938.074-.679.224-.959a1.66 1.66 0 0 1 .63-.651c.27-.159.588-.238.952-.238.34 0 .641.075.903.224a1.58 1.58 0 0 1 .609.616c.149.257.224.544.224.861l-.007.161-.007.175h-2.639c.018.271.112.483.28.637a.9.9 0 0 0 .623.231c.182 0 .333-.04.455-.119s.219-.191.28-.322h.91c-.066.219-.175.42-.329.602s-.336.317-.56.42-.469.154-.749.154zm.007-2.912a.94.94 0 0 0-.581.189c-.168.121-.276.308-.322.56h1.729c-.014-.229-.098-.411-.252-.546a.84.84 0 0 0-.574-.203zm4.547 2.912c-.261 0-.49-.049-.686-.147s-.354-.236-.476-.413l-.098.476h-.798v-5.04h.896v2.065c.112-.154.259-.289.441-.406.187-.117.427-.175.721-.175.327 0 .619.079.875.238a1.7 1.7 0 0 1 .609.651c.15.275.224.588.224.938s-.074.663-.224.938-.352.485-.609.644-.548.231-.875.231zm-.189-.784c.285 0 .521-.096.707-.287s.28-.439.28-.742a1.04 1.04 0 0 0-.28-.749c-.186-.196-.422-.294-.707-.294s-.527.098-.714.294-.273.439-.273.742.091.553.273.749.425.287.714.287zm4.133.784c-.308 0-.579-.049-.812-.147s-.42-.243-.56-.42-.224-.383-.252-.616h.903c.028.135.102.252.224.35a.79.79 0 0 0 .483.14c.196 0 .338-.04.427-.119s.14-.17.14-.273c0-.149-.066-.25-.196-.301a3.2 3.2 0 0 0-.546-.161l-.455-.119c-.154-.047-.297-.105-.427-.175s-.229-.168-.308-.28-.119-.259-.119-.427c0-.308.121-.567.364-.777s.592-.315 1.036-.315c.41 0 .737.096.98.287a1.16 1.16 0 0 1 .441.791h-.847c-.052-.257-.245-.385-.581-.385-.168 0-.299.033-.392.098s-.133.147-.133.245.067.184.203.245.315.117.539.168a6.45 6.45 0 0 1 .665.189c.205.065.368.166.49.301s.182.32.182.567c.004.215-.052.408-.168.581s-.285.308-.504.406-.479.147-.777.147zm2.726-4.095c-.164 0-.299-.049-.406-.147a.49.49 0 0 1-.154-.371c0-.149.051-.271.154-.364s.242-.147.406-.147.296.049.399.147a.46.46 0 0 1 .161.364.48.48 0 0 1-.161.371c-.103.098-.236.147-.399.147zm-.448 4.011v-3.472h.896v3.472h-.896zm3.378 0c-.364 0-.656-.089-.875-.266s-.329-.492-.329-.945v-1.512h-.595v-.749h.595l.105-.931h.791v.931h.938v.749h-.938v1.519c0 .168.035.285.105.35s.2.091.378.091h.434v.763h-.609zm2.997.084a1.9 1.9 0 0 1-.931-.224c-.27-.149-.483-.359-.637-.63s-.231-.583-.231-.938a2.01 2.01 0 0 1 .224-.959 1.66 1.66 0 0 1 .63-.651 1.85 1.85 0 0 1 .952-.238c.341 0 .642.075.903.224a1.57 1.57 0 0 1 .609.616c.15.257.224.544.224.861l-.007.161-.007.175h-2.639c.019.271.112.483.28.637s.381.231.623.231c.182 0 .334-.04.455-.119a.77.77 0 0 0 .28-.322h.91a1.65 1.65 0 0 1-.329.602c-.149.177-.336.317-.56.42a1.74 1.74 0 0 1-.749.154zm.007-2.912c-.219 0-.413.063-.581.189s-.275.308-.322.56h1.729c-.014-.229-.098-.411-.252-.546s-.345-.203-.574-.203zm3.925 2.912c-.308 0-.579-.049-.812-.147s-.42-.243-.56-.42-.224-.383-.252-.616h.903c.028.135.102.252.224.35a.79.79 0 0 0 .483.14c.196 0 .338-.04.427-.119s.14-.17.14-.273c0-.149-.066-.25-.196-.301a3.2 3.2 0 0 0-.546-.161l-.455-.119c-.154-.047-.297-.105-.427-.175s-.229-.168-.308-.28-.119-.259-.119-.427c0-.308.121-.567.364-.777s.592-.315 1.036-.315c.41 0 .737.096.98.287a1.16 1.16 0 0 1 .441.791h-.847c-.052-.257-.245-.385-.581-.385-.168 0-.299.033-.392.098s-.133.147-.133.245.067.184.203.245.315.117.539.168a6.45 6.45 0 0 1 .665.189c.205.065.368.166.49.301s.182.32.182.567c.004.215-.052.408-.168.581s-.285.308-.504.406-.479.147-.777.147z" fill="#2f1c6a"/><path d="M150.233 73.926H75.707c-3.762 0-6.812 3.05-6.812 6.812v74.526c0 3.762 3.05 6.812 6.812 6.812h74.526c3.762 0 6.812-3.05 6.812-6.812V80.738c0-3.762-3.05-6.812-6.812-6.812z" fill="#fafbff" stroke="#c5cde9" stroke-miterlimit="10"/><g fill="#673de6"><path fill-rule="evenodd" d="M124.271 106.41a1.56 1.56 0 0 1 .191.579c.024.203.009.409-.046.607a1.57 1.57 0 0 1-.274.544 1.55 1.55 0 0 1-.462.398c-.178.1-.375.165-.578.19a1.56 1.56 0 0 1-.608-.045c-.197-.055-.382-.148-.544-.274s-.296-.283-.397-.462c-1.036-1.755-2.56-3.171-4.387-4.074a10.48 10.48 0 0 0-5.901-1.011 9.92 9.92 0 0 0-3.788 1.298c-.007 0-.015.001-.022.004s-.014.008-.019.014-.009.012-.012.02-.003.015-.002.023c-1.143.67-2.147 1.553-2.958 2.601-.598.793-1.077 1.669-1.42 2.601l1.777.591a13 13 0 0 1 3.96 2.662 1.56 1.56 0 0 1 .354.503 1.55 1.55 0 0 1 .016 1.205 1.55 1.55 0 0 1-.339.512c-.147.146-.321.262-.513.34a1.56 1.56 0 0 1-.604.113c-.207-.003-.411-.047-.6-.13s-.361-.204-.503-.354c-.834-.857-1.843-1.524-2.958-1.955a8.72 8.72 0 0 0-3.487-.707 8.53 8.53 0 0 0-3.486.707c-1.103.454-2.108 1.118-2.958 1.955s-1.518 1.84-1.95 2.952c-.449 1.111-.689 2.295-.707 3.492-.012 1.2.229 2.388.707 3.487.454 1.102 1.115 2.106 1.95 2.958a8.35 8.35 0 0 0 2.958 1.949 9.7 9.7 0 0 0 3.486.708c2.444.033 4.839-.689 6.857-2.067 2.072-1.42 3.899-3.548 5.57-6.444a32.46 32.46 0 0 1 5.793-7.631c2.367-2.128 5.013-3.425 8.104-3.425a11.33 11.33 0 0 1 7.982 3.369c1.049 1.055 1.89 2.298 2.478 3.665.568 1.37.871 2.835.891 4.317.008 1.485-.296 2.956-.891 4.317a10.54 10.54 0 0 1-2.478 3.665c-2.109 2.136-4.98 3.348-7.982 3.37-1.487-.009-2.957-.312-4.327-.89a11.31 11.31 0 0 1-3.655-2.48c-.157-.14-.285-.311-.374-.502s-.139-.398-.145-.609.031-.421.108-.617a1.55 1.55 0 0 1 .344-.523 1.54 1.54 0 0 1 .522-.345c.196-.078.406-.115.616-.11a1.55 1.55 0 0 1 .61.144c.191.089.362.216.503.373.761.762 1.666 1.366 2.662 1.777a7.82 7.82 0 0 0 3.136.59 9.05 9.05 0 0 0 3.13-.59c1.001-.411 1.911-1.016 2.676-1.781s1.37-1.674 1.78-2.675c.413-.993.614-2.061.591-3.136-.007-1.073-.207-2.135-.591-3.136-.41-1.001-1.015-1.911-1.78-2.676s-1.675-1.37-2.676-1.78a7.79 7.79 0 0 0-3.13-.59c-2.228 0-4.261 1.002-6.032 2.601-1.95 1.715-3.665 4.199-5.203 6.856-1.893 3.253-4.021 5.737-6.505 7.453a15 15 0 0 1-8.628 2.601c-1.604-.011-3.191-.333-4.673-.947a12.36 12.36 0 0 1-6.634-6.556 11.99 11.99 0 0 1-.947-4.67c0-1.605.322-3.193.947-4.67a12.41 12.41 0 0 1 6.623-6.623c1.388-.584 2.873-.905 4.378-.947.467-1.491 1.186-2.891 2.127-4.138 1.034-1.378 2.343-2.526 3.844-3.37l.055-.062c1.535-.874 3.22-1.454 4.969-1.71a12.74 12.74 0 0 1 5.202.35c3.473.929 6.444 3.18 8.277 6.272v-.022z"/><use xlink:href="#B"/><path d="M117.972 62.535c1.781 0 3.225-1.444 3.225-3.225s-1.444-3.225-3.225-3.225-3.225 1.444-3.225 3.225 1.443 3.225 3.225 3.225zm60.678 91.046c1.781 0 3.225-1.443 3.225-3.225s-1.444-3.225-3.225-3.225-3.225 1.444-3.225 3.225 1.444 3.225 3.225 3.225zm-173.425 6.54c1.781 0 3.225-1.444 3.225-3.225s-1.444-3.225-3.225-3.225S2 155.115 2 156.896s1.444 3.225 3.225 3.225zM309.276 18.466c1.781 0 3.225-1.444 3.225-3.225s-1.444-3.225-3.225-3.225-3.225 1.444-3.225 3.225 1.444 3.225 3.225 3.225z"/></g></g><defs><clipPath id="A"><path fill="#fff" d="M0 0h328v181.571H0z"/></clipPath><path id="B" d="M299.078 103.87c1.781 0 3.225-1.444 3.225-3.225s-1.444-3.225-3.225-3.225-3.225 1.444-3.225 3.225 1.443 3.225 3.225 3.225z"/></defs></svg>